<svg xmlns="http://www.w3.org/2000/svg" viewBox="100.7 651.6 103.8 36"><g fill="#fff"><path d="M194.7 682.2c-.2-.7-.5-1.7-.5-2.8h10.2v-1.3c0-5.3-2.3-9-6.5-9-4.1 0-6.8 3.6-6.8 9v.6c0 1.3.1 2.5.5 3.6 0-.1 3.1-.1 3.1-.1zm3.3-10.5c2.2 0 3.2 1.9 3.4 5.3h-7.1c.2-3.2 1.5-5.3 3.7-5.3zm-56.8.2c-.8-1.8-2.4-2.9-4.6-2.9-3.6 0-6.2 3.2-6.2 9v.6c0 5.8 2.6 9 6.2 9 2.2 0 3.6-1.1 4.6-2.9v2.4h3v-35.5h-3v20.3zm.1 6.7c0 3.8-1.4 6.4-4 6.4s-4-2.5-4-6.4v-.5c0-3.7 1.3-6.4 4-6.4 2.5 0 4 2.6 4 6.4v.5z"/><path d="M182.3 684.7l7.3-15v-.2h-10.5v2.4h6.4l-7.3 15.1v.3h26.1v-2.6m-91.8-15.2h-3.2l-5.6 8.6v-26.5h-3v35.7h3v-7.7l5.8 7.7h3.6l-6.6-8.7m47.6-9.6c-4.1 0-6.8 3.6-6.8 9v.6c0 5.4 2.6 9 7.7 9 2.3 0 3.8-.7 4.9-1.6l-1.2-2.3c-1 .6-2 1.2-3.7 1.2-2.9 0-4.3-2-4.6-5.5h10.2v-1.3c-.2-5.4-2.5-9.1-6.5-9.1zm-3.8 8.1c.2-3.2 1.6-5.3 3.7-5.3s3.2 1.9 3.4 5.3h-7.1zm20.4-8.1c-2 0-3.6 1.1-4.3 2.6v-2.2h-3v17.8h3v-11.8c0-2.3 1.4-3.6 3.4-3.6 1.8 0 2.9 1.1 2.9 3.4v12h3v-12.4c.1-3.7-2.1-5.8-5-5.8zm-46.3 2.9c-1-1.7-2.3-2.9-4.4-2.9-3.5 0-6.1 3.2-6.1 9v.7c0 5.8 2.6 8.9 6.1 8.9 2.2 0 3.5-1.1 4.4-2.9v2.4h3v-17.6h-3v2.4zm.1 6.7c0 3.7-1.3 6.4-3.7 6.4-2.5 0-3.7-2.5-3.7-6.4v-.6c0-3.7 1.3-6.2 3.7-6.2 2.4 0 3.7 2.5 3.7 6.2v.6z"/></g></svg>